<svg xmlns="http://www.w3.org/2000/svg" xmlns:xlink="http://www.w3.org/1999/xlink" width="500" zoomAndPan="magnify" viewBox="0 0 375 374.999991" height="500" preserveAspectRatio="xMidYMid meet" version="1.0"><path fill="#6d1ed4" d="M 87.835938 148.886719 L 65.207031 148.679688 L 65.207031 163.703125 L 102.707031 163.703125 L 63.738281 213.699219 L 63.738281 226.414062 L 87.835938 226.414062 L 87.835938 241.058594 L 102.292969 241.058594 L 102.292969 226.414062 L 126.871094 226.414062 C 127.078125 225.828125 127.148438 224.25 125.84375 222.800781 C 123.671875 220.390625 121.949219 217.871094 120.367188 214.699219 C 119.640625 213.285156 119.09375 211.59375 118.886719 211.457031 C 114.046875 211.234375 86.203125 211.292969 86.214844 211.117188 L 125.21875 160.8125 L 125.21875 148.886719 L 102.292969 148.886719 L 102.292969 134.070312 L 87.835938 134.070312 Z M 192.242188 141.890625 C 191.898438 142.03125 191.796875 149.644531 191.796875 178.484375 C 191.796875 217.457031 191.761719 216.800781 193.480469 220.144531 C 195.03125 223.140625 198.816406 225.828125 203.050781 226.929688 C 205.390625 227.550781 212.277344 227.621094 214.929688 227.070312 C 218.335938 226.34375 218.988281 225.3125 217.648438 222.660156 C 216.785156 221.003906 215.652344 217.386719 215.375 215.386719 C 214.996094 213.011719 214.515625 212.632812 211.625 212.699219 C 210.246094 212.734375 208.9375 212.632812 208.695312 212.492188 C 207.285156 211.597656 207.285156 211.355469 207.285156 176.453125 C 207.285156 154.019531 207.183594 142.753906 206.941406 142.304688 C 206.597656 141.683594 206.148438 141.652344 199.609375 141.683594 C 195.789062 141.683594 192.449219 141.789062 192.242188 141.890625 Z M 223.808594 141.996094 C 223.363281 142.269531 223.292969 146.683594 223.292969 178.242188 C 223.292969 212.253906 223.328125 214.320312 223.945312 216.699219 C 225.117188 221.382812 227.769531 224.242188 232.792969 226.34375 C 234.722656 227.136719 235.582031 227.277344 239.472656 227.378906 C 244.671875 227.515625 247.320312 227.136719 249.972656 225.792969 C 252.585938 224.519531 252.65625 223.625 250.417969 220.351562 C 249.523438 219.039062 248.148438 216.800781 247.390625 215.386719 L 246.011719 212.804688 L 243.5 212.769531 C 240.367188 212.699219 240.058594 212.5625 239.472656 211.082031 C 239.023438 210.082031 238.957031 204.949219 238.957031 176.453125 C 238.957031 154.019531 238.851562 142.753906 238.613281 142.304688 C 238.265625 141.683594 237.820312 141.652344 231.28125 141.652344 C 227.457031 141.652344 224.085938 141.824219 223.808594 141.996094 Z M 223.808594 141.996094 " fill-opacity="1" fill-rule="nonzero"/><path fill="#6d1ed4" d="M 148.9375 163.53125 C 148.765625 163.601562 147.421875 163.910156 146.011719 164.21875 C 137.164062 166.253906 129.351562 173.042969 126.046875 181.65625 C 124.222656 186.410156 123.566406 190.097656 123.53125 195.574219 C 123.496094 203.257812 125.046875 208.910156 128.59375 214.285156 C 132.585938 220.316406 138.4375 224.414062 146.011719 226.484375 C 148.59375 227.171875 149.730469 227.277344 155.648438 227.277344 C 161.5 227.277344 162.707031 227.171875 165.152344 226.519531 C 171.210938 224.828125 176.375 222.039062 180.539062 218.074219 C 183.1875 215.59375 183.15625 214.90625 180.46875 212.839844 C 179.367188 211.976562 177.371094 210.117188 176.0625 208.667969 C 174.410156 206.910156 173.414062 206.085938 172.894531 206.085938 C 172.414062 206.085938 171.3125 206.773438 170.246094 207.808594 C 166.5625 211.148438 161.914062 212.734375 155.820312 212.699219 C 150.246094 212.667969 146.183594 211.21875 143.601562 208.253906 C 142.292969 206.773438 140.640625 203.398438 140.296875 201.503906 L 140.089844 200.226562 L 161.535156 200.226562 C 173.34375 200.226562 183.222656 200.089844 183.464844 199.917969 C 184.601562 199.195312 184.875 194.199219 184.050781 188.753906 C 182.085938 175.730469 174.308594 166.976562 162.085938 164.046875 C 159.917969 163.53125 158.128906 163.359375 154.273438 163.394531 C 151.519531 163.394531 149.144531 163.460938 148.9375 163.53125 Z M 158.128906 176.832031 C 160.640625 177.347656 163.738281 179.070312 165.183594 180.726562 C 166.527344 182.242188 167.90625 184.964844 168.25 186.71875 L 168.488281 187.824219 L 140.433594 187.824219 L 140.675781 186.71875 C 141.707031 182.070312 145.703125 178.175781 150.660156 176.933594 C 152.863281 176.382812 155.820312 176.347656 158.128906 176.832031 Z M 274.066406 163.839844 C 261.847656 166.5625 253.585938 175.175781 251.003906 187.890625 C 249.457031 195.402344 250.316406 204.15625 253.242188 210.425781 C 257.234375 219.109375 264.5 224.726562 274.414062 226.757812 C 277.546875 227.414062 278.785156 227.484375 283.707031 227.34375 C 287.871094 227.207031 290.109375 226.964844 292.039062 226.449219 C 297.925781 224.898438 303.085938 222.074219 307.046875 218.28125 C 310.074219 215.355469 310.074219 215.214844 306.804688 212.492188 C 305.289062 211.253906 303.261719 209.289062 302.296875 208.152344 C 300.058594 205.566406 299.472656 205.535156 296.960938 207.808594 C 293.207031 211.21875 288.734375 212.734375 282.503906 212.699219 C 273.757812 212.667969 268.664062 208.910156 267.011719 201.328125 L 266.769531 200.4375 L 310.386719 200.4375 C 311.867188 199.367188 311.316406 188.0625 309.523438 182.828125 C 309.179688 181.792969 308.25 179.726562 307.492188 178.277344 C 303.464844 170.558594 297.027344 165.769531 288.078125 163.875 C 285.222656 163.253906 276.789062 163.253906 274.066406 163.839844 Z M 284.808594 176.832031 C 287.148438 177.347656 289.558594 178.554688 291.28125 180.105469 C 292.726562 181.449219 295.066406 185.6875 295.066406 186.996094 L 295.066406 187.824219 L 267.113281 187.824219 L 267.355469 186.859375 C 269.144531 179.484375 276.71875 175.109375 284.808594 176.832031 Z M 284.808594 176.832031 " fill-opacity="1" fill-rule="nonzero"/></svg>